HIERARCHY
ROOT Hips
{
	OFFSET -0.001795 -0.223333 0.028219
	CHANNELS 6 Xposition Yposition Zposition Zrotation Yrotation Xrotation 
	JOINT LeftUpLeg
	{
		OFFSET 0.069520 -0.091406 -0.006815
		CHANNELS 3 Zrotation Yrotation Xrotation
		JOINT LeftLeg
		{
			OFFSET 0.034277 -0.375199 -0.004496
			CHANNELS 3 Zrotation Yrotation Xrotation
			JOINT LeftFoot
			{
				OFFSET -0.013596 -0.397961 -0.043693
				CHANNELS 3 Zrotation Yrotation Xrotation
				JOINT LeftToe
				{
					OFFSET 0.026358 -0.055791 0.119288
					CHANNELS 3 Zrotation Yrotation Xrotation
					End Site
					{
						OFFSET 0.000000 0.000000 0.000000
					}
				}
			}
		}
	}
	JOINT RightUpLeg
	{
		OFFSET -0.067670 -0.090522 -0.004320
		CHANNELS 3 Zrotation Yrotation Xrotation
		JOINT RightLeg
		{
			OFFSET -0.038290 -0.382569 -0.008850
			CHANNELS 3 Zrotation Yrotation Xrotation
			JOINT RightFoot
			{
				OFFSET 0.015774 -0.398415 -0.042312
				CHANNELS 3 Zrotation Yrotation Xrotation
				JOINT RightToe
				{
					OFFSET -0.025372 -0.048144 0.123348
					CHANNELS 3 Zrotation Yrotation Xrotation
					End Site
					{
						OFFSET 0.000000 0.000000 0.000000
					}
				}
			}
		}
	}
	JOINT Spine
	{
		OFFSET -0.002533 0.108963 -0.026696
		CHANNELS 3 Zrotation Yrotation Xrotation
		JOINT Spine1
		{
			OFFSET 0.005487 0.135180 0.001092
			CHANNELS 3 Zrotation Yrotation Xrotation
			JOINT Spine2
			{
				OFFSET 0.001457 0.052922 0.025425
				CHANNELS 3 Zrotation Yrotation Xrotation
				JOINT Neck
				{
					OFFSET -0.002778 0.213870 -0.042857
					CHANNELS 3 Zrotation Yrotation Xrotation
					JOINT Head
					{
						OFFSET 0.005152 0.064970 0.051349
						CHANNELS 3 Zrotation Yrotation Xrotation
						End Site
						{
							OFFSET 0.000000 0.000000 0.000000
						}
					}
				}
				JOINT LeftShoulder
				{
					OFFSET 0.078845 0.121749 -0.034090
					CHANNELS 3 Zrotation Yrotation Xrotation
					JOINT LeftArm
					{
						OFFSET 0.090977 0.030469 -0.008868
						CHANNELS 3 Zrotation Yrotation Xrotation
						JOINT LeftForeArm
						{
							OFFSET 0.259612 -0.012772 -0.027456
							CHANNELS 3 Zrotation Yrotation Xrotation
							JOINT LeftHand
							{
								OFFSET 0.249234 0.008986 -0.001171
								CHANNELS 3 Zrotation Yrotation Xrotation
								End Site
								{
									OFFSET 0.000000 0.000000 0.000000
								}
							}
						}
					}
				}
				JOINT RightShoulder
				{
					OFFSET -0.081759 0.118833 -0.038615
					CHANNELS 3 Zrotation Yrotation Xrotation
					JOINT RightArm
					{
						OFFSET -0.096012 0.032551 -0.009143
						CHANNELS 3 Zrotation Yrotation Xrotation
						JOINT RightForeArm
						{
							OFFSET -0.253742 -0.013329 -0.021401
							CHANNELS 3 Zrotation Yrotation Xrotation
							JOINT RightHand
							{
								OFFSET -0.255298 0.007772 -0.005559
								CHANNELS 3 Zrotation Yrotation Xrotation
								End Site
								{
									OFFSET 0.000000 0.000000 0.000000
								}
							}
						}
					}
				}
			}
		}
	}
}
MOTION
Frames: 18
Frame Time: 0.050000
0.000000 0.944081 0.000000 -1.881634 -5.253743 1.279893 2.880123 0.273186 3.995040 0.742767 0.028998 -2.942752 3.113019 8.506074 8.541890 0.000000 0.000000 0.000000 -3.166414 0.217779 -1.463927 1.562123 -0.151334 -0.143026 -2.778942 -10.790510 11.676268 0.000000 0.000000 0.000000 -2.655107 -0.097696 8.618363 5.764275 -1.358306 -18.454449 -0.624543 3.159986 21.783656 1.966114 -0.303330 -15.697488 0.000000 0.000000 0.000000 -31.513650 -0.381101 -2.065658 -46.328740 -4.268037 -5.661047 -12.763560 -25.342727 4.089510 0.000000 0.000000 0.000000 26.658715 6.730420 2.415292 52.412351 6.925172 -4.093298 4.638602 26.876437 2.187715 0.000000 0.000000 0.000000 
0.000595 0.943142 0.004752 -2.148812 -5.536709 1.945859 3.322161 0.301418 4.661165 0.282454 0.139995 -4.728902 3.179150 8.616339 8.624013 0.000000 0.000000 0.000000 -2.775909 0.253307 -2.012023 1.226347 -0.112915 0.065181 -2.734717 -10.661820 11.358051 0.000000 0.000000 0.000000 -2.926051 -0.063654 8.247528 5.866172 -1.388306 -18.432823 -0.532127 1.808926 22.335415 1.626568 -0.249861 -16.372921 0.000000 0.000000 0.000000 -31.442896 1.419190 -2.646863 -46.943026 -4.441776 -5.910184 -13.079022 -25.905240 4.365137 0.000000 0.000000 0.000000 25.958718 7.270389 2.213866 53.677106 5.721334 -4.607181 4.031295 28.168550 2.108119 0.000000 0.000000 0.000000 
0.000609 0.943245 0.011062 -1.534001 -5.854587 2.126372 3.344420 0.249915 3.897951 -1.108033 0.205104 -3.035642 3.309614 8.796851 8.506803 0.000000 0.000000 0.000000 -3.348564 0.303654 -2.500521 0.929646 -0.047784 1.138531 -2.735122 -10.565823 10.850053 0.000000 0.000000 0.000000 -3.099265 -0.045041 8.695032 6.316607 -1.314593 -20.785347 -0.911098 1.603224 24.881020 1.214433 0.019514 -17.711350 0.000000 0.000000 0.000000 -31.012970 1.267561 -2.154740 -47.229759 -4.836118 -6.136263 -13.455686 -25.120250 4.365380 0.000000 0.000000 0.000000 26.962785 7.010123 1.948417 52.746495 5.458852 -4.896076 3.336703 27.860352 1.931916 0.000000 0.000000 0.000000 
-0.000203 0.942298 0.019855 -1.532453 -5.789543 3.334361 3.106326 0.207483 3.320407 -0.708824 0.175978 -3.346066 3.383556 8.896475 8.365183 0.000000 0.000000 0.000000 -3.235258 0.401942 -3.795599 0.725625 0.011217 2.152490 -2.962016 -10.848920 10.316733 0.000000 0.000000 0.000000 -3.244354 -0.017298 8.298568 6.700509 -1.405732 -20.656949 -1.129196 0.654142 24.981187 0.561074 0.327578 -17.807419 0.000000 0.000000 0.000000 -30.441632 1.710005 -2.055186 -47.647619 -4.387376 -6.422235 -14.998212 -25.515041 4.851005 0.000000 0.000000 0.000000 27.049712 7.427952 1.865330 52.634041 4.317259 -5.261000 3.600883 28.702084 2.012905 0.000000 0.000000 0.000000 
-0.002021 0.940656 0.031295 -1.322259 -5.642286 3.531872 2.945443 0.191021 3.053829 -0.705294 0.136562 -1.968033 3.469947 8.939768 7.676355 0.000000 0.000000 0.000000 -3.254082 0.430721 -4.181795 0.466958 0.109982 3.855287 -3.293305 -11.190382 9.283894 0.000000 0.000000 0.000000 -3.099773 -0.034453 9.127596 6.676323 -1.471203 -19.801400 -1.228297 0.674772 24.252735 0.274549 0.508217 -16.835409 0.000000 0.000000 0.000000 -30.165672 1.234201 -1.806892 -47.145761 -3.743998 -6.499722 -15.733089 -26.566799 5.218094 0.000000 0.000000 0.000000 27.371376 6.934475 1.556398 52.417582 3.302812 -5.583483 3.944824 28.935744 2.106368 0.000000 0.000000 0.000000 
-0.004884 0.938208 0.045866 -1.328351 -5.409271 4.498472 3.221185 0.112155 2.181012 -0.951771 0.128113 -0.604775 3.577790 8.998954 6.856379 0.000000 0.000000 0.000000 -3.103100 0.513988 -5.240827 0.443192 0.192392 5.698157 -3.715092 -11.710004 8.173209 0.000000 0.000000 0.000000 -3.727616 0.040301 10.130832 7.654150 -1.546341 -21.441204 -1.108991 0.819354 25.317130 0.205430 0.652916 -18.155178 0.000000 0.000000 0.000000 -29.561759 1.514575 -2.020205 -47.866873 -3.928826 -6.573771 -16.674479 -26.581792 5.470160 0.000000 0.000000 0.000000 26.862082 7.064154 1.825965 51.983435 3.235335 -5.715123 4.823580 28.526461 2.297890 0.000000 0.000000 0.000000 
-0.008228 0.934913 0.064506 -1.269886 -5.219089 5.409850 2.886731 0.024453 0.917729 -0.250092 -0.026566 2.039977 3.861529 9.345518 5.823829 0.000000 0.000000 0.000000 -2.623587 0.601232 -6.274266 -0.251689 0.416153 8.088910 -4.197241 -12.342165 6.861399 0.000000 0.000000 0.000000 -3.448916 0.015456 10.904430 7.148513 -1.415052 -21.292461 -0.968955 1.116746 25.205872 0.323581 0.641145 -18.213287 0.000000 0.000000 0.000000 -29.540290 1.586082 -2.242036 -47.588532 -3.442841 -6.664401 -17.205416 -27.592488 5.811959 0.000000 0.000000 0.000000 26.668413 6.552551 1.685085 52.342911 2.676829 -6.023892 5.598509 28.447487 2.501191 0.000000 0.000000 0.000000 
-0.011497 0.930519 0.088054 -0.514364 -4.945450 5.885447 1.950189 0.005128 0.481212 0.181087 -0.157185 4.472493 3.982340 9.455399 5.071072 0.000000 0.000000 0.000000 -3.141406 0.635782 -6.773904 -0.517838 0.617671 10.900573 -4.787627 -13.176487 5.304626 0.000000 0.000000 0.000000 -4.063451 0.110931 13.046389 6.776625 -1.159511 -22.867066 -1.002466 1.383895 25.547471 0.217091 0.822264 -19.044053 0.000000 0.000000 0.000000 -28.811476 1.338212 -2.178944 -47.027156 -3.370272 -6.602074 -18.739589 -29.270956 6.584605 0.000000 0.000000 0.000000 26.718393 6.291565 1.720304 51.974665 1.364225 -6.606353 7.728635 28.836189 3.075667 0.000000 0.000000 0.000000 
-0.014198 0.923221 0.116976 0.016885 -5.106499 6.440510 0.709213 0.014743 0.341299 1.260472 -0.417966 7.053031 4.462915 10.187328 3.951509 0.000000 0.000000 0.000000 -3.597546 0.755654 -8.414644 -0.250167 0.890330 16.280442 -5.742514 -14.836265 3.473429 0.000000 0.000000 0.000000 -4.920949 0.265165 13.917107 7.297148 -1.248252 -23.093295 -1.558923 1.949772 26.259934 -0.586897 1.502912 -20.500704 0.000000 0.000000 0.000000 -29.491692 2.291608 -3.068745 -46.061094 -3.423913 -6.487566 -19.101974 -31.456992 7.208206 0.000000 0.000000 0.000000 27.333380 6.554547 2.119340 52.726322 2.249030 -6.469595 6.919497 27.526853 2.778602 0.000000 0.000000 0.000000 
-0.017100 0.910955 0.150446 0.689256 -5.018106 6.245823 0.932025 -0.017213 0.015821 -0.332325 -0.219806 11.959130 4.791383 10.550122 2.090935 0.000000 0.000000 0.000000 -4.874885 0.800068 -9.642731 1.138802 0.909546 22.965678 -6.624213 -16.491882 1.782952 0.000000 0.000000 0.000000 -6.331985 0.549383 16.080569 7.378838 -1.205693 -23.676349 -1.333405 3.109437 27.475907 0.168214 1.285740 -21.929950 0.000000 0.000000 0.000000 -30.610701 0.551114 -2.415462 -43.067842 -6.676757 -5.079336 -19.914778 -34.467739 8.107638 0.000000 0.000000 0.000000 27.976002 6.708187 2.798172 50.842584 2.260929 -6.544592 7.517210 26.526177 2.838351 0.000000 0.000000 0.000000 
-0.021520 0.893901 0.187440 1.553989 -2.742162 5.230470 0.329518 0.032940 0.449066 0.314935 -0.576217 17.769647 4.828743 9.935000 -1.416111 0.000000 0.000000 0.000000 -5.874973 0.936628 -13.818116 3.531872 0.412872 37.770211 -8.201574 -20.181889 5.282330 0.000000 0.000000 0.000000 -7.264840 0.725335 18.936138 6.971328 -1.256665 -21.807214 -1.387550 0.722169 26.411586 0.355053 1.135431 -24.738672 0.000000 0.000000 0.000000 -32.612409 -0.462112 -1.537669 -40.011933 -11.600924 -3.341189 -19.430167 -42.009799 9.926817 0.000000 0.000000 0.000000 26.709791 7.555232 2.922149 50.423144 -0.992959 -7.540149 8.804750 25.846901 2.938915 0.000000 0.000000 0.000000 
-0.028714 0.874519 0.228241 2.122197 0.505172 4.751446 1.301736 0.115169 1.809069 0.116359 -0.843745 22.327724 4.526689 7.536111 -6.721906 0.000000 0.000000 0.000000 -8.251795 0.861963 -22.950117 8.755285 -3.773587 58.363589 -8.632378 -20.819000 14.611315 0.000000 0.000000 0.000000 -8.460348 0.953045 23.114160 9.348667 -1.560413 -24.049347 -2.654529 -1.780796 27.655463 1.008792 0.841161 -28.701925 0.000000 0.000000 0.000000 -34.656997 -2.420258 0.111625 -36.541162 -20.689854 -0.906658 -17.944918 -52.967506 12.326427 0.000000 0.000000 0.000000 24.521776 4.391454 0.872653 49.835548 -8.076309 -10.258853 10.972616 24.612138 3.197709 0.000000 0.000000 0.000000 
-0.040515 0.857606 0.278031 1.842318 4.247583 4.420804 3.365095 0.236081 5.925806 1.114752 -1.375923 22.238600 4.494273 5.405341 -10.296935 0.000000 0.000000 0.000000 -11.464406 -0.206050 -31.391618 13.207898 -9.922783 67.679890 -9.881907 -22.666024 15.619831 0.000000 0.000000 0.000000 -7.141172 0.448775 26.312557 10.554217 -1.772219 -24.235450 -4.871915 -5.767826 26.726534 0.053800 1.164307 -31.108968 0.000000 0.000000 0.000000 -33.919787 -4.660357 2.580626 -33.471696 -29.827794 1.207327 -8.707356 -69.481340 10.966916 0.000000 0.000000 0.000000 24.032216 2.998811 -0.650448 47.471777 -17.041195 -12.708933 11.663113 25.803637 3.367571 0.000000 0.000000 0.000000 
-0.057200 0.849648 0.343069 1.225579 6.850952 5.742463 5.288879 0.137921 10.676189 3.217876 -1.746985 18.173637 3.762330 4.587401 -7.213066 0.000000 0.000000 0.000000 -13.070467 -1.449858 -38.909045 16.925234 -13.337692 64.310149 -9.878510 -24.229716 -3.964014 0.000000 0.000000 0.000000 -5.038697 -0.235130 26.288515 11.628310 -2.063811 -23.429180 -5.997436 -11.390491 24.361594 -1.937830 1.622324 -33.198982 0.000000 0.000000 0.000000 -30.412488 -3.201470 3.163053 -31.047278 -39.698061 3.199422 53.952918 -87.268518 -43.443236 0.000000 0.000000 0.000000 20.782873 1.824503 -2.346235 43.575237 -26.278232 -14.220732 15.440962 26.267261 3.934168 0.000000 0.000000 0.000000 
-0.078706 0.849454 0.425920 -0.397691 6.494475 8.800215 8.121241 -0.314062 15.533639 4.877872 -1.545556 12.236339 -0.142410 0.994155 2.527898 0.000000 0.000000 0.000000 -13.190446 -1.827727 -45.510884 20.428982 -12.840760 52.809643 -9.327793 -23.131016 -5.140704 0.000000 0.000000 0.000000 -2.064715 -0.750002 22.288433 14.389189 -2.535163 -24.554825 -9.440276 -11.057895 24.885056 -1.526903 1.443887 -32.121592 0.000000 0.000000 0.000000 -23.425217 -2.216171 2.108942 -32.633543 -45.281126 5.554813 159.041246 -78.366862 -143.602252 0.000000 0.000000 0.000000 18.206365 -1.610507 -3.723488 40.726485 -31.471803 -14.845651 19.183656 25.178885 4.447446 0.000000 0.000000 0.000000 
-0.102940 0.850240 0.521758 -0.685931 6.533985 10.396889 9.162268 -0.552322 16.203565 7.381317 -2.615128 16.672028 -4.256980 -0.688882 14.181951 0.000000 0.000000 0.000000 -10.881690 -0.804706 -44.621726 20.838069 -11.988232 48.131760 -11.753692 -27.020184 5.469198 0.000000 0.000000 0.000000 1.522922 -1.365742 19.470884 10.674377 -1.854807 -22.625800 -6.057611 -14.387420 21.725109 -4.613588 2.485035 -29.324114 0.000000 0.000000 0.000000 -23.985634 -2.626749 3.290804 -33.693666 -43.983541 5.585208 175.728570 -73.346497 -160.955689 0.000000 0.000000 0.000000 13.844181 -1.684516 -3.639522 41.751604 -33.206099 -15.881972 19.226096 26.445391 4.463313 0.000000 0.000000 0.000000 
-0.127807 0.843411 0.619285 -0.600774 3.612681 10.657125 6.502077 -0.012339 9.610988 9.327900 -5.544474 33.763373 -4.408204 1.475052 20.998741 0.000000 0.000000 0.000000 -6.742935 1.358255 -40.404414 19.371606 -11.594741 54.122339 -11.154656 -27.013899 0.034300 0.000000 0.000000 0.000000 3.561954 -1.622915 18.461381 8.633711 -1.128194 -25.309580 -6.055436 -12.541269 23.757313 -4.745683 2.544830 -28.463693 0.000000 0.000000 0.000000 -26.154253 -0.298974 2.078064 -36.080619 -37.100742 3.515868 -156.601820 -71.547591 161.880314 0.000000 0.000000 0.000000 18.333864 -1.358367 -4.437602 39.174965 -28.793549 -13.283723 17.304166 31.171336 4.900602 0.000000 0.000000 0.000000 
-0.150852 0.832339 0.709858 -1.145784 -0.047582 8.597403 3.922416 -0.155402 -0.595969 7.668974 -7.170506 55.743795 1.167887 7.719676 16.573032 0.000000 0.000000 0.000000 -3.150975 2.530710 -32.611594 17.568242 -9.600149 57.152944 -9.291983 -23.147455 -4.033116 0.000000 0.000000 0.000000 3.618732 -1.802371 22.424344 7.477752 -0.874413 -26.306599 -2.714516 -7.645976 25.264413 -5.905788 3.611323 -30.439956 0.000000 0.000000 0.000000 -33.945158 0.335046 0.844419 -34.296901 -27.285203 0.115203 -121.653970 -71.980985 114.904363 0.000000 0.000000 0.000000 26.468938 2.757646 -2.840496 36.307663 -15.841295 -8.522822 12.564953 34.161047 4.377541 0.000000 0.000000 0.000000 
